<?xml version="1.0" encoding="utf-8"?>
<!-- Generator: Adobe Illustrator 27.8.0, SVG Export Plug-In . SVG Version: 6.00 Build 0)  -->
<svg version="1.1" id="Layer_1" xmlns="http://www.w3.org/2000/svg" xmlns:xlink="http://www.w3.org/1999/xlink" x="0px"
    y="0px" viewBox="0 0 573 196" style="enable-background:new 0 0 573 196;" xml:space="preserve">
    <style type="text/css">
        .st0 {
            fill: #F16421;
        }

        .st1 {
            fill: #FFFFFF;
        }

        .st2 {
            fill: #221F1F;
        }
    </style>
    <path class="st0"
        d="M54.2,140.1c-11.9-0.7-13.3-2.2-13.3-4.3c0-2.3,1.6-3.8,9.9-3.8c8.2,0,10.3,2.4,10.8,5.5h41.5
c-0.7-18.6-13.2-33.4-52.1-33.4c-38.7,0-49.7,12.7-49.7,28.5c0,15.7,8.5,25.7,49.3,27.4c12,0.5,13.3,2.3,13.3,4.3s-1.5,3.8-10.7,3.8
c-9.1,0-11.2-2.4-11.6-5.6H0C0.7,182.4,12.5,196,52.5,196c41.3,0,52.4-12.8,52.4-29C104.9,151.4,96.8,141.9,54.2,140.1L54.2,140.1z" />
    <polygon class="st0"
        points="107.3,141.8 135.1,141.8 135.1,193.7 175.5,193.7 175.5,141.8 203.2,141.8 203.2,106.4 107.3,106.4 " />
    <path class="st0" d="M265.7,151.4c0,6-2.6,8.8-8.5,8.8s-8.5-2.9-8.5-8.8v-44.9h-40.1v48.1c0,24.5,14.7,41.5,48.6,41.5
s48.6-17,48.6-41.5v-48.1h-40.1V151.4z" />
    <path class="st0" d="M364.9,106.4h-51.7v87.2h51.7c33.9,0,50.2-18.9,50.2-41.8v-3.6C415.2,125.2,398.8,106.4,364.9,106.4
L364.9,106.4z M374.1,150.3c0,6-3.4,10-10.5,10h-10.5v-20.5h10.5c7,0,10.5,3.9,10.5,10V150.3L374.1,150.3z" />
    <rect x="420.5" y="106.4" class="st0" width="40.4" height="87.2" />
    <path class="st0" d="M519.7,104.1c-36.7,0-53.2,19-53.2,43.7v4.5c0,24.7,16.6,43.7,53.2,43.7s53.3-19,53.3-43.7v-4.5
C573,123,556.4,104.1,519.7,104.1z M532,150.5c0,6.3-3.8,10.9-12.2,10.9s-12.3-4.5-12.3-10.9v-1c0-6.3,3.9-10.9,12.3-10.9
c8.4,0,12.2,4.5,12.2,10.9V150.5z" />
    <path class="st0" d="M104.6,68.2c0-13.1-12.9-19.7-25-21.5l-0.8-0.1v-2l0.7-0.1c6.8-1.1,22.5-5.2,22.5-21.3C102.1,8.2,87.6,0,61.2,0
H1.7v91.4h59.5C97,91.4,104.6,78.8,104.6,68.2z M39,26.9h16.2c4.6,0,6.9,1.8,6.9,5.4s-2.2,5.5-6.7,5.5H39V26.9L39,26.9z M39,64.5
V53.6h17.8c1.9,0,7.5,0,7.5,5.5c0,5.4-5.8,5.4-7.6,5.4H39L39,64.5z" />
    <polygon class="st0" points="190.6,55 152.9,55 152.9,0 111.2,0 111.2,91.4 190.6,91.4 " />
    <path class="st0" d="M299.4,50.5V0h-41.2v47.1c0,7-3.3,10.5-10,10.5s-10-3.4-10-10.5V0H197v50.5c0,28,18.2,43.4,51.2,43.4
S299.4,78.5,299.4,50.5L299.4,50.5z" />
    <path class="st0" d="M412,68.2c0-13.1-12.9-19.7-25-21.5l-0.8-0.1v-2l0.8-0.1c6.8-1.1,22.5-5.2,22.5-21.3C409.6,8.2,395,0,368.6,0
h-59.5v91.4h59.5C404.5,91.4,412,78.8,412,68.2z M346.5,26.9h16.2c4.6,0,6.9,1.8,6.9,5.4s-2.2,5.5-6.6,5.5h-16.4L346.5,26.9
L346.5,26.9z M346.5,64.5V53.6h17.9c1.9,0,7.5,0,7.5,5.5c0,5.4-5.8,5.4-7.6,5.4H346.5L346.5,64.5z" />
    <g id="Layer_2">

        <ellipse transform="matrix(5.714107e-03 -1 1 5.714107e-03 476.7583 578.8688)" class="st1" cx="529.5" cy="49.7"
            rx="17.9" ry="17.4" />
        <path class="st2"
            d="M533.3,53.1c1.8-1.8,1.8-4.8-0.1-6.6c-1.8-1.8-4.7-1.8-6.5,0s-1.8,4.8,0,6.6S531.5,55,533.3,53.1z" />
        <path class="st0" d="M480.8,76.5C482,77.1,508,89,530,87.6c29-1.8,35-11.9,36.8-13.7c1.8-1.8-0.6-3.1-0.6-3.1s-3.5-0.8-3.5-2.7
c0-3.5,5-2.5,7.9-4.2c3-1.8,0.7-5-0.6-6.6c-1.2-1.4-1.9-5.8-2-7c0-0.2,0-0.4-0.1-0.6c-0.1-1.8-1-12.9-13.3-26.1
c-11.1-11.9-24.7-13.9-31.8-14.2c-1.4-0.1-2.8-0.6-3.9-1.7C505.7-5.5,498.4,3,498.4,3c-3,3.4-4,6.8-4.2,9.3
c-0.2,2.4-1.7,4.3-3.9,5.2c-9.1,3.6-19.4,12.1-24.2,16.3c-1.7,1.5-4.2,1.9-6.3,1c-7.1-3.3-17.5-10.2-19.4-11.5
c-0.2-0.1-0.4-0.2-0.5-0.4c-1.2-1-7.1-5.7-10.2,0c-3,5.6,2.9,12.9,4.4,14.6c0.2,0.2,0.5,0.6,0.6,0.9c1.6,2.8,8.4,15.5,0.8,24.6
c-4.7,5.6-4.8,10-3.8,12.9c0.9,2.6,3.4,4.2,6.1,4.1c8.5-0.6,17.1-7.4,21.9-12c2.3-2.2,5.6-2.2,8-0.2
C472.7,72.2,477.9,75.1,480.8,76.5L480.8,76.5z M517.4,37.6c6.6-6.9,17.3-6.9,24-0.1c6.6,6.7,6.7,17.7,0.1,24.6
c-6.6,6.8-17.2,6.8-24,0.1C510.8,55.4,510.8,44.4,517.4,37.6L517.4,37.6z" />
    </g>
</svg>